<?xml version="1.0" encoding="UTF-8" standalone="no"?>
<!-- Generator: Adobe Illustrator 27.5.0, SVG Export Plug-In . SVG Version: 6.00 Build 0)  -->

<svg
   version="1.1"
   x="0px"
   y="0px"
   viewBox="0 0 186.98604 179.44745"
   xml:space="preserve"
   id="svg135"
   sodipodi:docname="dessin2.svg"
   width="186.98604"
   height="179.44745"
   inkscape:version="1.2.2 (b0a8486541, 2022-12-01)"
   xmlns:inkscape="http://www.inkscape.org/namespaces/inkscape"
   xmlns:sodipodi="http://sodipodi.sourceforge.net/DTD/sodipodi-0.dtd"
   xmlns:xlink="http://www.w3.org/1999/xlink"
   xmlns="http://www.w3.org/2000/svg"
   xmlns:svg="http://www.w3.org/2000/svg"><defs
   id="defs139"><linearGradient
     inkscape:collect="always"
     xlink:href="#SVGID_00000066502151380359900230000016609212511069663912_"
     id="linearGradient5368"
     gradientUnits="userSpaceOnUse"
     x1="284.0163"
     y1="208.2802"
     x2="232.5325"
     y2="201.6996" /></defs><sodipodi:namedview
   id="namedview137"
   pagecolor="#ffffff"
   bordercolor="#666666"
   borderopacity="1.0"
   inkscape:showpageshadow="2"
   inkscape:pageopacity="0.0"
   inkscape:pagecheckerboard="0"
   inkscape:deskcolor="#d1d1d1"
   showgrid="false"
   inkscape:zoom="0.472"
   inkscape:cx="-70.974576"
   inkscape:cy="148.30508"
   inkscape:window-width="1850"
   inkscape:window-height="1011"
   inkscape:window-x="0"
   inkscape:window-y="0"
   inkscape:window-maximized="1"
   inkscape:current-layer="svg135" />

<g
   id="OBJECTS"
   transform="translate(-151.86095,-102.35439)">
	<g
   id="g117">
		<g
   id="g100">
			<g
   id="g98">
				<linearGradient
   id="SVGID_1_"
   gradientUnits="userSpaceOnUse"
   x1="181.0899"
   y1="194.9061"
   x2="165.99319"
   y2="138.39011">
					<stop
   offset="0"
   style="stop-color:#B8F56A"
   id="stop7" />
					<stop
   offset="1"
   style="stop-color:#147A62"
   id="stop9" />
				</linearGradient>
				<path
   style="fill:url(#SVGID_1_)"
   d="m 156.331,173.323 c 0,0 5.29,6.968 18.194,4.387 12.903,-2.581 18.452,-11.484 18.452,-11.484 0,0 -16.903,6.452 -24.774,0 -7.871,-6.452 -4.387,-14.71 -4.387,-14.71 0,0 -0.129,5.032 4.903,8.258 0,0 -7.226,-13.032 5.807,-21.677 h -16.258 c -0.001,0 -9.55,20.129 -1.937,35.226 z"
   id="path12" />
				
					<linearGradient
   id="SVGID_00000117650639156612481450000007158749828857525888_"
   gradientUnits="userSpaceOnUse"
   x1="178.43559"
   y1="168.0477"
   x2="155.72591"
   y2="139.2735">
					<stop
   offset="0"
   style="stop-color:#B8F56A;stop-opacity:0"
   id="stop14" />
					<stop
   offset="1"
   style="stop-color:#147A62"
   id="stop16" />
				</linearGradient>
				<path
   style="fill:url(#SVGID_00000117650639156612481450000007158749828857525888_)"
   d="m 192.977,166.226 c 0,0 -16.903,6.452 -24.774,0 -7.871,-6.452 -4.387,-14.71 -4.387,-14.71 0,0 -0.129,5.032 4.903,8.258 0,0 -6.628,-11.975 4.304,-20.581 l -0.24,-0.806 c 0,0 -9,0.581 -13.452,8.71 -4.452,8.129 -3.29,21.774 8.226,25.452 11.516,3.678 25.42,-6.323 25.42,-6.323 z"
   id="path19" />
				
					<linearGradient
   id="SVGID_00000148623038893003620820000006430422602950353330_"
   gradientUnits="userSpaceOnUse"
   x1="155.0901"
   y1="98.890297"
   x2="372.896"
   y2="306.8898">
					<stop
   offset="0"
   style="stop-color:#B8F56A"
   id="stop21" />
					<stop
   offset="1"
   style="stop-color:#147A62"
   id="stop23" />
				</linearGradient>
				<path
   style="display:inline;fill:url(#SVGID_00000148623038893003620820000006430422602950353330_)"
   d="m 324.525,252.097 c 0,0 0,7.548 -1.355,10.839 0,0 12.774,7.161 15.677,11.613 0,0 -12.387,-34.064 -35.226,-64.645 -22.839,-30.581 -70.064,-84.774 -119.226,-84.387 0,0 22.388,-3.97 54.194,17.419 33.097,22.258 58.064,52.258 67.548,66 0,0 0.968,-28.839 0.774,-30 -0.194,-1.161 -7.548,-10.839 -7.548,-10.839 l -2.129,12.968 -2.323,-16.839 c 0,0 -18.774,-28.839 -40.839,-39.677 l -1.355,13.936 -4.839,-17.419 -5.613,-2.903 c 0,0 3.677,13.161 3.097,23.419 0,0 -6.194,-19.161 -14.129,-27.484 0,0 -31.936,-18.194 -59.032,-9.29 0,0 18.968,0.968 30,12.193 0,0 -23.226,-9.29 -31.742,-4.452 0,0 -17.032,18.581 -18.387,36.581 -1.355,18 4.258,24.194 4.258,24.194 0,0 -8.903,-20.129 14.129,-31.355 0,0 14.903,-4.645 28.258,-0.774 l 13.355,-2.129 -9.871,4.645 c 0,0 16.258,9.871 25.742,24.581 l 16.258,3.484 -13.548,0.193 5.806,9.29 c 0,0 19.935,5.032 31.742,12.774 0,0 -18,-5.032 -29.419,-5.419 l 6.581,18.774 c 0,0 29.806,-5.419 56.129,5.226 10e-4,-0.001 16.452,21.483 23.033,39.483 z"
   id="path26" />
				
					<linearGradient
   id="SVGID_00000183961182542478983210000002920105493224939164_"
   gradientUnits="userSpaceOnUse"
   x1="280.08939"
   y1="193.6179"
   x2="236.92799"
   y2="184.134">
					<stop
   offset="0"
   style="stop-color:#B8F56A;stop-opacity:0"
   id="stop28" />
					<stop
   offset="1"
   style="stop-color:#147A62"
   id="stop30" />
				</linearGradient>
				<path
   style="fill:url(#SVGID_00000183961182542478983210000002920105493224939164_)"
   d="m 288.331,198.871 c -26.323,-15.678 -51.871,-17.613 -51.871,-17.613 0,0 19.935,5.032 31.742,12.774 z"
   id="path33" />
				
					<linearGradient
   id="SVGID_00000048464899347416913840000001008611118438953661_"
   gradientUnits="userSpaceOnUse"
   x1="302.37851"
   y1="199.38029"
   x2="301.79791"
   y2="169.57381">
					<stop
   offset="0"
   style="stop-color:#B8F56A;stop-opacity:0"
   id="stop35" />
					<stop
   offset="1"
   style="stop-color:#147A62"
   id="stop37" />
				</linearGradient>
				<path
   style="fill:url(#SVGID_00000048464899347416913840000001008611118438953661_)"
   d="m 306.898,182.885 c 0.043,-2.201 0.055,-3.703 0.014,-3.95 -0.194,-1.161 -7.548,-10.839 -7.548,-10.839 l -2.129,12.968 0.16,16.312 c 2.383,2.938 4.46,5.635 6.215,8.022 z"
   id="path40" />
				
					<linearGradient
   id="SVGID_00000058591090758511411700000006314402670326919355_"
   gradientUnits="userSpaceOnUse"
   x1="279.07449"
   y1="174.54871"
   x2="278.88089"
   y2="113.9678">
					<stop
   offset="0"
   style="stop-color:#B8F56A;stop-opacity:0"
   id="stop42" />
					<stop
   offset="1"
   style="stop-color:#147A62"
   id="stop44" />
				</linearGradient>
				<path
   style="fill:url(#SVGID_00000058591090758511411700000006314402670326919355_)"
   d="m 270.663,136.121 c 2.326,8.19 6.388,23.618 9.74,42.17 2.457,2.53 4.792,5.018 6.982,7.432 0.043,-5.002 -0.021,-21.36 -2.404,-34.669 -3.926,-4.704 -8.818,-10.042 -14.318,-14.933 z"
   id="path47" />
				
					<linearGradient
   id="SVGID_00000065054220978636938620000017652076357767979197_"
   gradientUnits="userSpaceOnUse"
   x1="271.00821"
   y1="159.8965"
   x2="263.2663"
   y2="115.7677">
					<stop
   offset="0"
   style="stop-color:#B8F56A;stop-opacity:0"
   id="stop49" />
					<stop
   offset="1"
   style="stop-color:#147A62"
   id="stop51" />
				</linearGradient>
				<path
   style="fill:url(#SVGID_00000065054220978636938620000017652076357767979197_)"
   d="m 274.009,166.548 c 0,0 -2.395,-20.59 -5.734,-32.491 -1.569,-1.312 -3.18,-2.573 -4.826,-3.768 2.189,5.865 6.847,19.266 10.56,36.259 z"
   id="path54" />
				
					<linearGradient
   id="SVGID_00000134229941546240326610000015841482438396430722_"
   gradientUnits="userSpaceOnUse"
   x1="266.27429"
   y1="171.45309"
   x2="194.0807"
   y2="155.1951">
					<stop
   offset="0"
   style="stop-color:#B8F56A;stop-opacity:0"
   id="stop56" />
					<stop
   offset="1"
   style="stop-color:#147A62"
   id="stop58" />
				</linearGradient>
				<path
   style="fill:url(#SVGID_00000134229941546240326610000015841482438396430722_)"
   d="m 268.064,168.922 c -17.48,-7.611 -40.519,-11.621 -50.558,-13.106 3.67,3.553 7.401,7.763 10.438,12.474 l 16.258,3.484 30.648,3.99 c -2.2,-2.292 -4.464,-4.578 -6.786,-6.842 z"
   id="path61" />
				
					<linearGradient
   id="SVGID_00000157301159261645513710000015449922628286542246_"
   gradientUnits="userSpaceOnUse"
   x1="166.884"
   y1="132.5363"
   x2="141.8517"
   y2="162.7298">
					<stop
   offset="0"
   style="stop-color:#B8F56A;stop-opacity:0"
   id="stop63" />
					<stop
   offset="1"
   style="stop-color:#147A62"
   id="stop65" />
				</linearGradient>
				<path
   style="fill:url(#SVGID_00000157301159261645513710000015449922628286542246_)"
   d="m 160.511,126.121 c -4.002,6.607 -7.825,14.864 -8.438,23.008 -0.023,0.305 -0.039,0.598 -0.058,0.896 5.825,-18.814 32.381,-24.509 32.381,-24.509 0,0 -14.231,-1.221 -23.885,0.605 z"
   id="path68" />
				
					<linearGradient
   id="SVGID_00000019653184756444807430000015895691958921389244_"
   gradientUnits="userSpaceOnUse"
   x1="216.8044"
   y1="118.7369"
   x2="205.5786"
   y2="94.446602">
					<stop
   offset="0"
   style="stop-color:#B8F56A;stop-opacity:0"
   id="stop70" />
					<stop
   offset="1"
   style="stop-color:#147A62"
   id="stop72" />
				</linearGradient>
				<path
   style="fill:url(#SVGID_00000019653184756444807430000015895691958921389244_)"
   d="m 222.525,127.839 c 0,0 -3.674,-13.813 -7.821,-20.824 -2.448,-0.815 -5.087,-1.595 -7.872,-2.279 3.539,3.515 10.597,11.445 15.693,23.103 z"
   id="path75" />
				
					<linearGradient
   id="SVGID_00000134951461281078831050000009952933134838070408_"
   gradientUnits="userSpaceOnUse"
   x1="219.57671"
   y1="118.6087"
   x2="193.2542"
   y2="86.286201">
					<stop
   offset="0"
   style="stop-color:#B8F56A;stop-opacity:0"
   id="stop77" />
					<stop
   offset="1"
   style="stop-color:#147A62"
   id="stop79" />
				</linearGradient>
				<path
   style="fill:url(#SVGID_00000134951461281078831050000009952933134838070408_)"
   d="m 222.525,127.839 c 0,0 -3.674,-13.813 -7.821,-20.824 -2.448,-0.815 -5.087,-1.595 -7.872,-2.279 3.539,3.515 10.597,11.445 15.693,23.103 z"
   id="path82" />
				
					<linearGradient
   id="SVGID_00000081645892666517890290000007063870739449936512_"
   gradientUnits="userSpaceOnUse"
   x1="227.515"
   y1="130.1889"
   x2="220.9343"
   y2="84.898697">
					<stop
   offset="0"
   style="stop-color:#B8F56A;stop-opacity:0"
   id="stop84" />
					<stop
   offset="1"
   style="stop-color:#147A62"
   id="stop86" />
				</linearGradient>
				<path
   style="fill:url(#SVGID_00000081645892666517890290000007063870739449936512_)"
   d="m 218.947,108.525 c 5.991,9.586 12.453,26.417 14.129,30.898 0.436,0.263 0.879,0.542 1.319,0.814 -3.214,-13.375 -7.854,-24.671 -9.969,-29.471 -1.596,-0.704 -3.444,-1.469 -5.479,-2.241 z"
   id="path89" />
				
					<linearGradient
   id="SVGID_00000066502151380359900230000016609212511069663912_"
   gradientUnits="userSpaceOnUse"
   x1="284.0163"
   y1="208.2802"
   x2="232.5325"
   y2="201.6996">
					<stop
   offset="0"
   style="stop-color:#B8F56A;stop-opacity:0"
   id="stop91" />
					<stop
   offset="1"
   style="stop-color:#147A62"
   id="stop93" />
				</linearGradient>
				<path
   style="fill:url(#linearGradient5368)"
   d="m 245.364,207.387 c 0,0 29.806,-5.419 56.129,5.226 0,0 -13.032,-9.097 -28.645,-9.613 -15.614,-0.516 -27.484,4.387 -27.484,4.387 z"
   id="path96" />
			</g>
		</g>
		
			<linearGradient
   id="SVGID_00000151507372150349892290000011915226345112232342_"
   gradientUnits="userSpaceOnUse"
   x1="191.78889"
   y1="251.74519"
   x2="368.34021"
   y2="251.74519"
   xlink:href="#SVGID_00000066502151380359900230000016609212511069663912_"
   inkscape:collect="always">
			<stop
   offset="0"
   style="stop-color:#b8f56a;stop-opacity:1;"
   id="stop102" />
			
			
			
			
			<stop
   offset="0.9192"
   style="stop-color:#147a62;stop-opacity:1;"
   id="stop112" />
		</linearGradient>
		<path
   style="fill:url(#SVGID_00000151507372150349892290000011915226345112232342_);fill-opacity:1"
   d="m 338.847,274.548 c -2.91,1.031 -5.902,1.888 -8.967,2.466 -3.066,0.561 -6.193,0.859 -9.337,0.892 -6.283,0.006 -12.622,-1.056 -18.597,-3.157 -5.974,-2.093 -11.684,-4.951 -16.946,-8.436 -2.631,-1.741 -5.208,-3.568 -7.666,-5.534 -2.474,-1.948 -4.881,-3.978 -7.18,-6.117 -2.305,-2.101 -4.548,-4.43 -6.672,-6.46 -2.171,-2.067 -4.434,-4.029 -6.788,-5.859 -4.721,-3.637 -9.738,-6.864 -15.101,-9.314 -5.354,-2.45 -11.026,-4.136 -16.784,-4.826 -5.746,-0.715 -11.61,-0.38 -17.057,1.256 -5.434,1.619 -10.434,4.606 -14.042,8.798 -1.816,2.078 -3.279,4.448 -4.302,7.005 -1.028,2.541 -1.598,5.339 -1.721,8.06 -0.102,2.721 0.337,5.453 1.304,8.016 0.954,2.568 2.427,4.961 4.25,7.076 3.657,4.231 8.806,7.278 14.35,8.487 5.538,1.218 11.49,0.554 16.531,-2.184 2.549,-1.374 4.805,-3.09 6.293,-5.404 1.5,-2.29 2.256,-5.069 2.135,-7.888 -0.119,-2.818 -1.071,-5.636 -2.664,-8.056 -1.596,-2.419 -3.813,-4.464 -6.427,-5.848 -2.61,-1.405 -5.6,-2.095 -8.624,-2.163 -3.031,-0.063 -6.094,0.506 -9.005,1.523 2.809,-1.272 5.845,-2.135 8.987,-2.353 3.136,-0.213 6.369,0.303 9.313,1.604 5.921,2.535 10.465,8.384 11.165,15.087 0.357,3.329 -0.329,6.855 -2.09,9.811 -0.866,1.479 -1.967,2.821 -3.224,3.965 -1.276,1.158 -2.59,2.091 -4.016,2.952 -2.838,1.701 -6.01,2.892 -9.3,3.456 -3.288,0.58 -6.678,0.508 -9.951,-0.09 -6.552,-1.205 -12.693,-4.526 -17.288,-9.472 -4.619,-4.9 -7.445,-11.735 -7.293,-18.657 0.085,-3.438 0.705,-6.782 1.913,-9.992 1.2,-3.196 2.961,-6.185 5.149,-8.796 4.416,-5.223 10.444,-8.809 16.788,-10.752 6.37,-1.96 13.084,-2.364 19.569,-1.604 6.502,0.765 12.761,2.76 18.598,5.477 5.827,2.752 11.27,6.227 16.175,10.296 2.46,2.025 4.806,4.174 7.04,6.423 2.27,2.298 4.245,4.475 6.442,6.592 8.578,8.506 18.259,16.037 29.347,20.75 5.543,2.304 11.419,3.901 17.469,4.354 6.036,0.542 12.2,-0.018 18.224,-1.384 z"
   id="path115" />
	</g>
</g>

</svg>
