<?xml version="1.0" encoding="UTF-8" standalone="no"?>
<svg
   viewBox="0 0 33.688198 33.794491"
   version="1.1"
   id="svg4"
   sodipodi:docname="feather2-line5.svg"
   inkscape:version="1.2.2 (b0a8486541, 2022-12-01)"
   width="33.688198"
   height="33.794491"
   xmlns:inkscape="http://www.inkscape.org/namespaces/inkscape"
   xmlns:sodipodi="http://sodipodi.sourceforge.net/DTD/sodipodi-0.dtd"
   xmlns="http://www.w3.org/2000/svg"
   xmlns:svg="http://www.w3.org/2000/svg">
  <defs
     id="defs8" />
  <sodipodi:namedview
     id="namedview6"
     pagecolor="#ffffff"
     bordercolor="#666666"
     borderopacity="1.0"
     inkscape:showpageshadow="2"
     inkscape:pageopacity="0.0"
     inkscape:pagecheckerboard="0"
     inkscape:deskcolor="#d1d1d1"
     showgrid="false"
     inkscape:zoom="16.669172"
     inkscape:cx="6.599008"
     inkscape:cy="17.09743"
     inkscape:window-width="1850"
     inkscape:window-height="1011"
     inkscape:window-x="0"
     inkscape:window-y="0"
     inkscape:window-maximized="1"
     inkscape:current-layer="svg4" />
  <rect
     style="display:inline;fill:#b4f3b4;stroke-width:0.851834;stroke-opacity:0"
     id="rect395"
     width="33.688198"
     height="33.794491"
     x="0"
     y="0" />
  <path
     style="display:inline;fill:#ffffff;fill-opacity:1;stroke:none;stroke-width:1px;stroke-linecap:butt;stroke-linejoin:miter;stroke-opacity:1"
     d="M 3.0347,3.9465161 9.886092,13.28894 v 0 l 3.484398,0.212077 v 0 l -1.425489,3.186318 4.596809,6.858188 3.372149,-0.03164 0.77918,2.596953 v 0 L 29.296221,26.099123 27.066947,12.206056 15.956195,4.4180077 Z"
     id="path1826" />
  <path
     fill="currentColor"
     d="m 29.846967,29.160613 q 0.326,0.888 0.607,1.785 c 0.07,0.24 0.31,0.4 0.57,0.35 0.3,-0.05 0.47,-0.36 0.38,-0.66 q -0.447,-1.421 -1,-2.814 v -4.706 A 19.98,19.98 0 0 0 23.327967,7.8426129 23.4,23.4 0 0 0 8.2279666,2.3056132 H 4.0579659 a 1.66,1.66 0 0 0 -1.539,1.052 c -0.08,0.206 -0.118,0.427 -0.111,0.648 0.003,0.436 0.17,0.854 0.466,1.174 a 55,55 0 0 1 5.9540007,8.2819998 1.75,1.75 0 0 0 1.5000004,0.844 h 1.32 l -0.668,1.1 a 1.78,1.78 0 0 0 -0.046,1.764 112,112 0 0 1 1.165,2.221 14.5,14.5 0 0 0 3.515,4.463 1.94,1.94 0 0 0 1.22,0.45 h 1.33 c -0.058,0.15 -0.088,0.311 -0.088,0.473 a 1.26,1.26 0 0 0 0.729,1.15 14.5,14.5 0 0 0 6.323,1.439 h 3.7 z m -1.617,-3.795 h -3.102 a 12.5,12.5 0 0 1 -3.96,-0.635 l 0.628,-0.293 a 1.1,1.1 0 0 0 0.679,-1.185 1.11,1.11 0 0 0 -1.111,-0.947 h -4.53 a 13.1,13.1 0 0 1 -2.95,-3.814 c -0.281,-0.564 -0.806,-1.552 -1.129,-2.156 l 1.293,-2.13 a 1.26,1.26 0 0 0 0.155,-0.9 h 5.035 q 0.609,0.562 1.197,1.15 a 40.3,40.3 0 0 1 7.796,10.91 M 7.8699666,8.3056129 A 58,58 0 0 0 4.7649659,4.3056132 h 3.4630007 a 21.4,21.4 0 0 1 6.1960004,0.92 V 8.2956129 A 41,41 0 0 0 8.7939666,5.2156132 c -0.24,-0.11 -0.53,-0.01 -0.65,0.23 a 0.5,0.5 0 0 0 0.25,0.69 41,41 0 0 1 4.1620004,2.1699997 z m 11.6340004,-0.78 a 21.4,21.4 0 0 1 2.534,1.843 17.99,17.99 0 0 1 6.366,13.7470001 v 0.405 a 41.6,41.6 0 0 0 -8.9,-11.318 z"
     id="path2"
     style="fill:#000000;fill-opacity:1" />
  <path
     style="fill:#000000;stroke-opacity:0"
     id="path592"
     d="m 3.6649921,30.565446 c 1.4275619,-0.215479 2.8584724,-0.478769 4.2212095,-0.968225 0.30549,-0.109723 0.60209,-0.242777 0.903135,-0.364166 1.2328474,-0.605575 1.2755814,-0.599638 2.8607274,-1.638555 0.34736,-0.227662 0.83382,-0.772122 0.977018,-1.179637 0.03535,-0.1006 0.02499,-0.211791 0.03748,-0.317686 -0.08533,-0.105888 -0.14701,-0.23632 -0.255991,-0.317663 -0.132271,-0.09873 -0.290447,-0.163002 -0.449077,-0.208598 -1.466163,-0.421431 -2.8514934,0.827318 -3.9558324,1.506416 -0.09976,0.208853 -0.280025,0.395907 -0.299272,0.62656 -0.05422,0.649762 0.415606,1.242878 0.871564,1.62026 0.364098,0.301354 0.778234,0.544045 1.204762,0.747652 1.4713174,0.702345 2.3551644,0.780818 3.9988114,1.140923 5.175385,0.874453 10.443028,0.679076 15.658855,0.375191 0.513675,-0.03965 1.02735,-0.0793 1.541025,-0.118953 0,0 1.285427,-0.95206 1.285427,-0.95206 v 0 c -0.534998,0.05685 -1.069996,0.113698 -1.604994,0.170547 -5.217121,0.420001 -10.500472,0.648117 -15.676615,-0.307981 -1.692931,-0.416178 -3.578378,-0.734393 -4.947976,-1.929288 -0.3869694,-0.337608 -0.8190814,-0.895006 -0.7189894,-1.47045 0.03673,-0.211169 0.219603,-0.368159 0.329404,-0.552238 -0.322576,0.158543 -0.654464,0.2994 -0.967729,0.475628 -0.195916,0.110213 0.400321,-0.209828 0.61481,-0.277093 0.488961,-0.153341 1.0919694,-0.176126 1.5489364,0.09721 0.07225,0.04322 0.115706,0.122324 0.173559,0.183486 -0.01587,0.08243 -0.01492,0.169968 -0.04762,0.247281 -0.09406,0.222433 -0.346826,0.539627 -0.506712,0.698424 -0.138919,0.137975 -0.6392474,0.415012 -0.446268,0.381924 0.0036,-6.15e-4 2.175529,-1.122212 0.117769,-0.05984 -0.3017534,0.127493 -0.5985184,0.267507 -0.9052614,0.382479 -1.300378,0.487402 -2.6774167,0.765437 -4.0573548,0.895923 0,0 -1.5048017,1.112534 -1.5048017,1.112534 z" />
</svg>
