<?xml version="1.0" encoding="UTF-8" standalone="no"?>
<!DOCTYPE svg PUBLIC "-//W3C//DTD SVG 1.1//EN"
 "http://www.w3.org/Graphics/SVG/1.1/DTD/svg11.dtd">
<!-- Generated by graphviz version 2.43.0 (0)
 -->
<!-- Title: %3 Pages: 1 -->
<svg width="802pt" height="778pt"
 viewBox="0.00 0.00 802.00 778.22" xmlns="http://www.w3.org/2000/svg" xmlns:xlink="http://www.w3.org/1999/xlink">
<g id="graph0" class="graph" transform="scale(1 1) rotate(0) translate(4 774.22)">
<title>%3</title>
<polygon fill="white" stroke="transparent" points="-4,4 -4,-774.22 798,-774.22 798,4 -4,4"/>
<g id="clust1" class="cluster">
<title>cluster_legend</title>
<polygon fill="none" stroke="black" points="37,-687.22 37,-762.22 583,-762.22 583,-687.22 37,-687.22"/>
<text text-anchor="middle" x="310" y="-747.02" font-family="Times,serif" font-size="14.00">Légende</text>
</g>
<g id="clust2" class="cluster">
<title>cluster_inputs</title>
<polygon fill="none" stroke="black" stroke-dasharray="5,2" points="8,-575.48 8,-668.22 710,-668.22 710,-575.48 8,-575.48"/>
<text text-anchor="middle" x="359" y="-653.02" font-family="Times,serif" font-size="14.00">Sources externes de données sur le français</text>
</g>
<!-- legda -->
<g id="node1" class="node">
<title>legda</title>
<ellipse fill="lightyellow" stroke="black" cx="418" cy="-713.22" rx="156.77" ry="18"/>
<text text-anchor="middle" x="418" y="-709.52" font-family="Times,serif" font-size="14.00">jaune=données générées pendant le build</text>
</g>
<!-- legjs -->
<g id="node2" class="node">
<title>legjs</title>
<polygon fill="lightgreen" stroke="black" points="243,-731.22 145,-731.22 145,-695.22 243,-695.22 243,-731.22"/>
<text text-anchor="middle" x="194" y="-709.52" font-family="Times,serif" font-size="14.00">vert=javascript</text>
</g>
<!-- recto&#45;verso -->
<g id="node5" class="node">
<title>recto&#45;verso</title>
<g id="a_node5"><a xlink:href="https://uclouvain.be/recto-verso/essaie-recto.html" xlink:title="recto&#45;verso">
<ellipse fill="lightyellow" stroke="black" cx="194" cy="-610.35" rx="50.09" ry="18"/>
<text text-anchor="middle" x="194" y="-606.65" font-family="Times,serif" font-size="14.00">recto&#45;verso</text>
</a>
</g>
</g>
<!-- legjs&#45;&gt;recto&#45;verso -->
<!-- legoc3 -->
<g id="node3" class="node">
<title>legoc3</title>
<polygon fill="lightblue" stroke="black" points="127,-731.22 45,-731.22 45,-695.22 127,-695.22 127,-731.22"/>
<text text-anchor="middle" x="86" y="-709.52" font-family="Times,serif" font-size="14.00">bleu=ocaml</text>
</g>
<!-- keyboardinit -->
<g id="node4" class="node">
<title>keyboardinit</title>
<g id="a_node4"><a xlink:href="https://github.com/Helium314/HeliBoard/" xlink:title="dictionnaire HeliBoard\nfrançais">
<ellipse fill="lightyellow" stroke="black" cx="602" cy="-610.35" rx="99.9" ry="26.74"/>
<text text-anchor="middle" x="602" y="-614.15" font-family="Times,serif" font-size="14.00">dictionnaire HeliBoard</text>
<text text-anchor="middle" x="602" y="-599.15" font-family="Times,serif" font-size="14.00">français</text>
</a>
</g>
</g>
<!-- keyboard -->
<g id="node16" class="node">
<title>keyboard</title>
<ellipse fill="lightyellow" stroke="black" cx="532" cy="-205.87" rx="99.9" ry="26.74"/>
<text text-anchor="middle" x="532" y="-209.67" font-family="Times,serif" font-size="14.00">dictionnaire HeliBoard</text>
<text text-anchor="middle" x="532" y="-194.67" font-family="Times,serif" font-size="14.00">français Érofa</text>
</g>
<!-- keyboardinit&#45;&gt;keyboard -->
<g id="edge23" class="edge">
<title>keyboardinit&#45;&gt;keyboard</title>
<path fill="none" stroke="black" d="M561.33,-585.8C543.26,-572.07 526,-552.83 526,-529.48 526,-529.48 526,-529.48 526,-287.74 526,-273.16 526.98,-257.13 528.15,-243.22"/>
<polygon fill="black" stroke="black" points="531.66,-243.33 529.07,-233.06 524.69,-242.7 531.66,-243.33"/>
</g>
<!-- dictionnaire 1990 -->
<g id="node10" class="node">
<title>dictionnaire 1990</title>
<ellipse fill="lightyellow" stroke="black" cx="208" cy="-528.48" rx="72.59" ry="18"/>
<text text-anchor="middle" x="208" y="-524.78" font-family="Times,serif" font-size="14.00">dictionnaire 1990</text>
</g>
<!-- recto&#45;verso&#45;&gt;dictionnaire 1990 -->
<g id="edge3" class="edge">
<title>recto&#45;verso&#45;&gt;dictionnaire 1990</title>
<path fill="none" stroke="black" d="M197.04,-592.02C198.85,-581.69 201.19,-568.36 203.24,-556.66"/>
<polygon fill="black" stroke="black" points="206.74,-556.96 205.02,-546.5 199.84,-555.75 206.74,-556.96"/>
</g>
<!-- lexique -->
<g id="node6" class="node">
<title>lexique</title>
<g id="a_node6"><a xlink:href="http://lexique.org" xlink:title="lexique.org">
<ellipse fill="lightyellow" stroke="black" cx="313" cy="-610.35" rx="50.89" ry="18"/>
<text text-anchor="middle" x="313" y="-606.65" font-family="Times,serif" font-size="14.00">lexique.org</text>
</a>
</g>
</g>
<!-- lexique&#45;&gt;dictionnaire 1990 -->
<g id="edge4" class="edge">
<title>lexique&#45;&gt;dictionnaire 1990</title>
<path fill="none" stroke="black" d="M292.51,-593.76C276.91,-581.9 255.23,-565.41 237.73,-552.1"/>
<polygon fill="black" stroke="black" points="239.6,-549.12 229.53,-545.85 235.37,-554.69 239.6,-549.12"/>
</g>
<!-- dictgen -->
<g id="node13" class="node">
<title>dictgen</title>
<defs>
<linearGradient id="l_0" gradientUnits="userSpaceOnUse" x1="231" y1="-454.48" x2="395" y2="-454.48" >
<stop offset="0" style="stop-color:lightgreen;stop-opacity:1.;"/>
<stop offset="1" style="stop-color:lightblue;stop-opacity:1.;"/>
</linearGradient>
</defs>
<polygon fill="url(#l_0)" stroke="black" points="395,-473.48 231,-473.48 231,-435.48 395,-435.48 395,-473.48"/>
<text text-anchor="middle" x="313" y="-458.28" font-family="Times,serif" font-size="14.00">génération de dictionnaires</text>
<text text-anchor="middle" x="313" y="-443.28" font-family="Times,serif" font-size="14.00">dict&#45;gen/</text>
</g>
<!-- lexique&#45;&gt;dictgen -->
<g id="edge6" class="edge">
<title>lexique&#45;&gt;dictgen</title>
<path fill="none" stroke="black" d="M313,-592.3C313,-566.12 313,-515.74 313,-483.96"/>
<polygon fill="black" stroke="black" points="316.5,-483.56 313,-473.56 309.5,-483.56 316.5,-483.56"/>
</g>
<!-- wiktionnaire -->
<g id="node7" class="node">
<title>wiktionnaire</title>
<g id="a_node7"><a xlink:href="https://fr.wiktionary.org/" xlink:title="wiktionnaire">
<ellipse fill="lightyellow" stroke="black" cx="71" cy="-610.35" rx="55.49" ry="18"/>
<text text-anchor="middle" x="71" y="-606.65" font-family="Times,serif" font-size="14.00">wiktionnaire</text>
</a>
</g>
</g>
<!-- h aspirés -->
<g id="node9" class="node">
<title>h aspirés</title>
<ellipse fill="lightyellow" stroke="black" cx="74" cy="-528.48" rx="42.49" ry="18"/>
<text text-anchor="middle" x="74" y="-524.78" font-family="Times,serif" font-size="14.00">h aspirés</text>
</g>
<!-- wiktionnaire&#45;&gt;h aspirés -->
<g id="edge2" class="edge">
<title>wiktionnaire&#45;&gt;h aspirés</title>
<path fill="none" stroke="black" d="M71.65,-592.02C72.04,-581.69 72.54,-568.36 72.98,-556.66"/>
<polygon fill="black" stroke="black" points="76.48,-556.63 73.36,-546.5 69.49,-556.36 76.48,-556.63"/>
</g>
<!-- wiktionnaire&#45;&gt;dictionnaire 1990 -->
<g id="edge5" class="edge">
<title>wiktionnaire&#45;&gt;dictionnaire 1990</title>
<path fill="none" stroke="black" d="M96.77,-594.33C118.08,-581.91 148.56,-564.13 172.24,-550.33"/>
<polygon fill="black" stroke="black" points="174.06,-553.32 180.94,-545.26 170.54,-547.27 174.06,-553.32"/>
</g>
<!-- DOR Érofa -->
<g id="node8" class="node">
<title>DOR Érofa</title>
<g id="a_node8"><a xlink:href="https://gitlab.com/erofa/coorte/-/blob/main/DOR/DOR.csv" xlink:title="DOR Érofa">
<ellipse fill="lightyellow" stroke="black" cx="433" cy="-610.35" rx="51.19" ry="18"/>
<text text-anchor="middle" x="433" y="-606.65" font-family="Times,serif" font-size="14.00">DOR Érofa</text>
</a>
</g>
</g>
<!-- DOR Érofa&#45;&gt;dictgen -->
<g id="edge7" class="edge">
<title>DOR Érofa&#45;&gt;dictgen</title>
<path fill="none" stroke="black" d="M420.16,-592.88C399.4,-566.27 358.3,-513.56 333.47,-481.73"/>
<polygon fill="black" stroke="black" points="336.14,-479.46 327.23,-473.73 330.62,-483.76 336.14,-479.46"/>
</g>
<!-- h aspirés&#45;&gt;dictgen -->
<g id="edge8" class="edge">
<title>h aspirés&#45;&gt;dictgen</title>
<path fill="none" stroke="black" d="M106.41,-516.72C112.89,-514.62 119.65,-512.45 126,-510.48 163.36,-498.88 205.1,-486.55 239.66,-476.5"/>
<polygon fill="black" stroke="black" points="241.04,-479.74 249.67,-473.6 239.09,-473.02 241.04,-479.74"/>
</g>
<!-- dictionnaire 1990&#45;&gt;dictgen -->
<g id="edge9" class="edge">
<title>dictionnaire 1990&#45;&gt;dictgen</title>
<path fill="none" stroke="black" d="M231.56,-511.32C245.21,-501.96 262.65,-490.01 277.89,-479.56"/>
<polygon fill="black" stroke="black" points="280.29,-482.15 286.56,-473.61 276.33,-476.38 280.29,-482.15"/>
</g>
<!-- dicterofa -->
<g id="node11" class="node">
<title>dicterofa</title>
<ellipse fill="lightyellow" stroke="black" cx="660" cy="-371.61" rx="106.13" ry="26.74"/>
<text text-anchor="middle" x="660" y="-375.41" font-family="Times,serif" font-size="14.00">dictionnaire 1990+Érofa</text>
<text text-anchor="middle" x="660" y="-360.41" font-family="Times,serif" font-size="14.00">avec mots dérivés</text>
</g>
<!-- cli -->
<g id="node14" class="node">
<title>cli</title>
<polygon fill="lightblue" stroke="black" points="497.5,-307.74 372.5,-307.74 372.5,-269.74 497.5,-269.74 497.5,-307.74"/>
<text text-anchor="middle" x="435" y="-292.54" font-family="Times,serif" font-size="14.00">CLI</text>
<text text-anchor="middle" x="435" y="-277.54" font-family="Times,serif" font-size="14.00">doc&#45;conversion/bin/</text>
</g>
<!-- dicterofa&#45;&gt;cli -->
<g id="edge12" class="edge">
<title>dicterofa&#45;&gt;cli</title>
<path fill="none" stroke="black" d="M600.59,-349.26C567.88,-337.5 527.41,-322.95 494.66,-311.18"/>
<polygon fill="black" stroke="black" points="495.8,-307.87 485.21,-307.79 493.43,-314.46 495.8,-307.87"/>
</g>
<!-- serveur -->
<g id="node15" class="node">
<title>serveur</title>
<polygon fill="lightblue" stroke="black" points="404,-142 328,-142 328,-104 404,-104 404,-142"/>
<text text-anchor="middle" x="366" y="-126.8" font-family="Times,serif" font-size="14.00">serveur</text>
<text text-anchor="middle" x="366" y="-111.8" font-family="Times,serif" font-size="14.00">site/server/</text>
</g>
<!-- dicterofa&#45;&gt;serveur -->
<g id="edge13" class="edge">
<title>dicterofa&#45;&gt;serveur</title>
<path fill="none" stroke="black" d="M666.14,-344.48C674.05,-303.63 682.3,-224.58 641,-179 611.24,-146.16 484.74,-132.21 414.14,-126.9"/>
<polygon fill="black" stroke="black" points="414.37,-123.4 404.15,-126.17 413.87,-130.38 414.37,-123.4"/>
</g>
<!-- webextension -->
<g id="node17" class="node">
<title>webextension</title>
<g id="a_node17"><a xlink:href="https://addons.mozilla.org/fr/firefox/addon/orthographe-rationnelle/" xlink:title="extension web\nextension/">
<polygon fill="lightgreen" stroke="black" points="793.5,-45.5 698.5,-45.5 698.5,-7.5 793.5,-7.5 793.5,-45.5"/>
<text text-anchor="middle" x="746" y="-30.3" font-family="Times,serif" font-size="14.00">extension web</text>
<text text-anchor="middle" x="746" y="-15.3" font-family="Times,serif" font-size="14.00">extension/</text>
</a>
</g>
</g>
<!-- dicterofa&#45;&gt;webextension -->
<g id="edge14" class="edge">
<title>dicterofa&#45;&gt;webextension</title>
<path fill="none" stroke="black" d="M695.46,-345.97C711.53,-331.71 727,-312.17 727,-289.74 727,-289.74 727,-289.74 727,-122 727,-99.27 732.35,-74.05 737.37,-55.39"/>
<polygon fill="black" stroke="black" points="740.74,-56.33 740.09,-45.75 734.01,-54.42 740.74,-56.33"/>
</g>
<!-- conv -->
<g id="node12" class="node">
<title>conv</title>
<defs>
<linearGradient id="l_1" gradientUnits="userSpaceOnUse" x1="287.5" y1="-371.61" x2="408.5" y2="-371.61" >
<stop offset="0" style="stop-color:lightgreen;stop-opacity:1.;"/>
<stop offset="1" style="stop-color:lightblue;stop-opacity:1.;"/>
</linearGradient>
</defs>
<polygon fill="url(#l_1)" stroke="black" points="408.5,-390.61 287.5,-390.61 287.5,-352.61 408.5,-352.61 408.5,-390.61"/>
<text text-anchor="middle" x="348" y="-375.41" font-family="Times,serif" font-size="14.00">conversion de docs</text>
<text text-anchor="middle" x="348" y="-360.41" font-family="Times,serif" font-size="14.00">doc&#45;conversion/</text>
</g>
<!-- conv&#45;&gt;cli -->
<g id="edge15" class="edge">
<title>conv&#45;&gt;cli</title>
<path fill="none" stroke="black" d="M367.74,-352.26C379.64,-341.2 394.97,-326.95 407.98,-314.85"/>
<polygon fill="black" stroke="black" points="410.39,-317.39 415.34,-308.02 405.63,-312.26 410.39,-317.39"/>
</g>
<!-- conv&#45;&gt;serveur -->
<g id="edge16" class="edge">
<title>conv&#45;&gt;serveur</title>
<path fill="none" stroke="black" d="M349.32,-352.48C352.43,-309.9 360.21,-203.29 363.94,-152.18"/>
<polygon fill="black" stroke="black" points="367.44,-152.39 364.67,-142.16 360.46,-151.88 367.44,-152.39"/>
</g>
<!-- client -->
<g id="node18" class="node">
<title>client</title>
<g id="a_node18"><a xlink:href="https://orthographe-rationnelle.info" xlink:title="client\northographe&#45;rationnelle.info\nsite/client/">
<polygon fill="lightgreen" stroke="black" points="370,-53 200,-53 200,0 370,0 370,-53"/>
<text text-anchor="middle" x="285" y="-37.8" font-family="Times,serif" font-size="14.00">client</text>
<text text-anchor="middle" x="285" y="-22.8" font-family="Times,serif" font-size="14.00">orthographe&#45;rationnelle.info</text>
<text text-anchor="middle" x="285" y="-7.8" font-family="Times,serif" font-size="14.00">site/client/</text>
</a>
</g>
</g>
<!-- conv&#45;&gt;client -->
<g id="edge17" class="edge">
<title>conv&#45;&gt;client</title>
<path fill="none" stroke="black" d="M344.61,-352.16C334.58,-297.5 304.87,-135.71 291.57,-63.27"/>
<polygon fill="black" stroke="black" points="294.98,-62.46 289.73,-53.25 288.09,-63.72 294.98,-62.46"/>
</g>
<!-- dictgen&#45;&gt;dicterofa -->
<g id="edge10" class="edge">
<title>dictgen&#45;&gt;dicterofa</title>
<path fill="none" stroke="black" d="M390.44,-435.43C444.8,-422.76 517.54,-405.81 573.75,-392.71"/>
<polygon fill="black" stroke="black" points="574.75,-396.07 583.69,-390.39 573.16,-389.26 574.75,-396.07"/>
</g>
<!-- dictgen&#45;&gt;cli -->
<g id="edge18" class="edge">
<title>dictgen&#45;&gt;cli</title>
<path fill="none" stroke="black" d="M369.92,-435.35C387.93,-426.9 406.19,-414.96 418,-398.48 434.79,-375.04 437.69,-341.46 437.25,-317.83"/>
<polygon fill="black" stroke="black" points="440.74,-317.6 436.84,-307.74 433.75,-317.88 440.74,-317.6"/>
</g>
<!-- dictgen&#45;&gt;serveur -->
<g id="edge19" class="edge">
<title>dictgen&#45;&gt;serveur</title>
<path fill="none" stroke="black" d="M291.97,-435.48C276.81,-420.41 259,-397.43 259,-372.61 259,-372.61 259,-372.61 259,-250.74 259,-206.91 296.82,-170.4 327.49,-148"/>
<polygon fill="black" stroke="black" points="329.75,-150.68 335.91,-142.06 325.72,-144.96 329.75,-150.68"/>
</g>
<!-- dictgen&#45;&gt;webextension -->
<g id="edge11" class="edge">
<title>dictgen&#45;&gt;webextension</title>
<path fill="none" stroke="black" d="M395.33,-451.46C510.43,-447.35 712.37,-435 775,-398.48 787.32,-391.29 794,-386.88 794,-372.61 794,-372.61 794,-372.61 794,-122 794,-97.01 780.5,-71.95 767.81,-53.92"/>
<polygon fill="black" stroke="black" points="770.47,-51.63 761.72,-45.66 764.84,-55.78 770.47,-51.63"/>
</g>
<!-- dictgen&#45;&gt;client -->
<g id="edge20" class="edge">
<title>dictgen&#45;&gt;client</title>
<path fill="none" stroke="black" d="M270.5,-435.45C246.4,-422.08 221,-401.21 221,-372.61 221,-372.61 221,-372.61 221,-122 221,-99.18 233.95,-77.77 248.2,-61.12"/>
<polygon fill="black" stroke="black" points="251.13,-63.1 255.25,-53.34 245.94,-58.4 251.13,-63.1"/>
</g>
<!-- cli&#45;&gt;serveur -->
<g id="edge21" class="edge">
<title>cli&#45;&gt;serveur</title>
<path fill="none" stroke="black" d="M416.32,-269.44C407.09,-259.41 396.57,-246.28 390,-232.74 377.55,-207.06 371.48,-174.84 368.57,-152.16"/>
<polygon fill="black" stroke="black" points="372.04,-151.7 367.41,-142.17 365.08,-152.5 372.04,-151.7"/>
<text text-anchor="middle" x="406.5" y="-202.17" font-family="Times,serif" font-size="14.00">inclus</text>
</g>
<!-- cli&#45;&gt;keyboard -->
<g id="edge24" class="edge">
<title>cli&#45;&gt;keyboard</title>
<path fill="none" stroke="black" d="M457.01,-269.39C468.12,-260.13 481.9,-248.64 494.61,-238.04"/>
<polygon fill="black" stroke="black" points="496.91,-240.68 502.35,-231.59 492.43,-235.3 496.91,-240.68"/>
</g>
<!-- serveur&#45;&gt;client -->
<g id="edge22" class="edge">
<title>serveur&#45;&gt;client</title>
<path fill="none" stroke="black" d="M350.38,-103.78C339.99,-91.65 326.02,-75.36 313.67,-60.94"/>
<polygon fill="black" stroke="black" points="316.17,-58.48 307,-53.17 310.85,-63.04 316.17,-58.48"/>
<text text-anchor="middle" x="344" y="-74.8" font-family="Times,serif" font-size="14.00">rpc</text>
</g>
<!-- keyboard&#45;&gt;serveur -->
<g id="edge25" class="edge">
<title>keyboard&#45;&gt;serveur</title>
<path fill="none" stroke="black" d="M484.88,-181.91C462.04,-170.79 434.73,-157.48 412.04,-146.43"/>
<polygon fill="black" stroke="black" points="413.48,-143.24 402.95,-142 410.41,-149.53 413.48,-143.24"/>
</g>
</g>
</svg>
