<?xml version="1.0" encoding="UTF-8" standalone="no"?>
<!DOCTYPE svg PUBLIC "-//W3C//DTD SVG 1.1//EN"
 "http://www.w3.org/Graphics/SVG/1.1/DTD/svg11.dtd">
<!-- Generated by graphviz version 2.43.0 (0)
 -->
<!-- Title: %3 Pages: 1 -->
<svg width="643pt" height="669pt"
 viewBox="0.00 0.00 642.50 668.74" xmlns="http://www.w3.org/2000/svg" xmlns:xlink="http://www.w3.org/1999/xlink">
<g id="graph0" class="graph" transform="scale(1 1) rotate(0) translate(4 664.74)">
<title>%3</title>
<polygon fill="white" stroke="transparent" points="-4,4 -4,-664.74 638.5,-664.74 638.5,4 -4,4"/>
<g id="clust1" class="cluster">
<title>cluster_legend</title>
<polygon fill="none" stroke="black" points="80.5,-577.74 80.5,-652.74 626.5,-652.74 626.5,-577.74 80.5,-577.74"/>
<text text-anchor="middle" x="353.5" y="-637.54" font-family="Times,serif" font-size="14.00">Légende</text>
</g>
<g id="clust2" class="cluster">
<title>cluster_inputs</title>
<polygon fill="none" stroke="black" stroke-dasharray="5,2" points="70.5,-483.74 70.5,-558.74 554.5,-558.74 554.5,-483.74 70.5,-483.74"/>
<text text-anchor="middle" x="312.5" y="-543.54" font-family="Times,serif" font-size="14.00">Sources externes de données sur le français</text>
</g>
<!-- zz -->
<g id="node1" class="node">
<title>zz</title>
<ellipse fill="lightyellow" stroke="black" cx="461.5" cy="-603.74" rx="156.77" ry="18"/>
<text text-anchor="middle" x="461.5" y="-600.04" font-family="Times,serif" font-size="14.00">jaune=données générées pendant le build</text>
</g>
<!-- zz2 -->
<g id="node2" class="node">
<title>zz2</title>
<polygon fill="lightgreen" stroke="black" points="286.5,-621.74 188.5,-621.74 188.5,-585.74 286.5,-585.74 286.5,-621.74"/>
<text text-anchor="middle" x="237.5" y="-600.04" font-family="Times,serif" font-size="14.00">vert=javascript</text>
</g>
<!-- zz3 -->
<g id="node3" class="node">
<title>zz3</title>
<polygon fill="lightblue" stroke="black" points="170.5,-621.74 88.5,-621.74 88.5,-585.74 170.5,-585.74 170.5,-621.74"/>
<text text-anchor="middle" x="129.5" y="-600.04" font-family="Times,serif" font-size="14.00">bleu=ocaml</text>
</g>
<!-- DOR Érofa -->
<g id="node7" class="node">
<title>DOR Érofa</title>
<g id="a_node7"><a xlink:href="https://gitlab.com/erofa/coorte/-/blob/main/DOR/DOR.csv" xlink:title="DOR Érofa">
<ellipse fill="lightyellow" stroke="black" cx="129.5" cy="-509.74" rx="51.19" ry="18"/>
<text text-anchor="middle" x="129.5" y="-506.04" font-family="Times,serif" font-size="14.00">DOR Érofa</text>
</a>
</g>
</g>
<!-- zz3&#45;&gt;DOR Érofa -->
<!-- recto&#45;verso -->
<g id="node4" class="node">
<title>recto&#45;verso</title>
<g id="a_node4"><a xlink:href="https://uclouvain.be/recto-verso/essaie-recto.html" xlink:title="recto&#45;verso">
<ellipse fill="lightyellow" stroke="black" cx="368.5" cy="-509.74" rx="50.09" ry="18"/>
<text text-anchor="middle" x="368.5" y="-506.04" font-family="Times,serif" font-size="14.00">recto&#45;verso</text>
</a>
</g>
</g>
<!-- dictionnaire 1990 -->
<g id="node9" class="node">
<title>dictionnaire 1990</title>
<ellipse fill="lightyellow" stroke="black" cx="355.5" cy="-436.74" rx="72.59" ry="18"/>
<text text-anchor="middle" x="355.5" y="-433.04" font-family="Times,serif" font-size="14.00">dictionnaire 1990</text>
</g>
<!-- recto&#45;verso&#45;&gt;dictionnaire 1990 -->
<g id="edge3" class="edge">
<title>recto&#45;verso&#45;&gt;dictionnaire 1990</title>
<path fill="none" stroke="black" d="M365.35,-491.55C363.88,-483.53 362.1,-473.79 360.46,-464.81"/>
<polygon fill="black" stroke="black" points="363.86,-463.98 358.62,-454.77 356.98,-465.24 363.86,-463.98"/>
</g>
<!-- lexique -->
<g id="node5" class="node">
<title>lexique</title>
<g id="a_node5"><a xlink:href="http://lexique.org" xlink:title="lexique.org">
<ellipse fill="lightyellow" stroke="black" cx="249.5" cy="-509.74" rx="50.89" ry="18"/>
<text text-anchor="middle" x="249.5" y="-506.04" font-family="Times,serif" font-size="14.00">lexique.org</text>
</a>
</g>
</g>
<!-- lexique&#45;&gt;dictionnaire 1990 -->
<g id="edge4" class="edge">
<title>lexique&#45;&gt;dictionnaire 1990</title>
<path fill="none" stroke="black" d="M272.24,-493.51C286.92,-483.68 306.26,-470.72 322.6,-459.78"/>
<polygon fill="black" stroke="black" points="324.96,-462.41 331.32,-453.93 321.07,-456.59 324.96,-462.41"/>
</g>
<!-- dictgen -->
<g id="node12" class="node">
<title>dictgen</title>
<defs>
<linearGradient id="l_0" gradientUnits="userSpaceOnUse" x1="180.5" y1="-362.74" x2="344.5" y2="-362.74" >
<stop offset="0" style="stop-color:lightgreen;stop-opacity:1.;"/>
<stop offset="1" style="stop-color:lightblue;stop-opacity:1.;"/>
</linearGradient>
</defs>
<polygon fill="url(#l_0)" stroke="black" points="344.5,-381.74 180.5,-381.74 180.5,-343.74 344.5,-343.74 344.5,-381.74"/>
<text text-anchor="middle" x="262.5" y="-366.54" font-family="Times,serif" font-size="14.00">génération de dictionnaires</text>
<text text-anchor="middle" x="262.5" y="-351.54" font-family="Times,serif" font-size="14.00">dict&#45;gen/</text>
</g>
<!-- lexique&#45;&gt;dictgen -->
<g id="edge6" class="edge">
<title>lexique&#45;&gt;dictgen</title>
<path fill="none" stroke="black" d="M251.04,-491.54C253.25,-466.95 257.32,-421.47 259.97,-391.93"/>
<polygon fill="black" stroke="black" points="263.47,-392.1 260.88,-381.83 256.5,-391.48 263.47,-392.1"/>
</g>
<!-- wiktionnaire -->
<g id="node6" class="node">
<title>wiktionnaire</title>
<g id="a_node6"><a xlink:href="https://fr.wiktionary.org/" xlink:title="wiktionnaire">
<ellipse fill="lightyellow" stroke="black" cx="491.5" cy="-509.74" rx="55.49" ry="18"/>
<text text-anchor="middle" x="491.5" y="-506.04" font-family="Times,serif" font-size="14.00">wiktionnaire</text>
</a>
</g>
</g>
<!-- h aspirés -->
<g id="node8" class="node">
<title>h aspirés</title>
<ellipse fill="lightyellow" stroke="black" cx="490.5" cy="-436.74" rx="42.49" ry="18"/>
<text text-anchor="middle" x="490.5" y="-433.04" font-family="Times,serif" font-size="14.00">h aspirés</text>
</g>
<!-- wiktionnaire&#45;&gt;h aspirés -->
<g id="edge2" class="edge">
<title>wiktionnaire&#45;&gt;h aspirés</title>
<path fill="none" stroke="black" d="M491.26,-491.55C491.14,-483.53 491.01,-473.79 490.88,-464.81"/>
<polygon fill="black" stroke="black" points="494.38,-464.72 490.74,-454.77 487.38,-464.82 494.38,-464.72"/>
</g>
<!-- wiktionnaire&#45;&gt;dictionnaire 1990 -->
<g id="edge5" class="edge">
<title>wiktionnaire&#45;&gt;dictionnaire 1990</title>
<path fill="none" stroke="black" d="M463.32,-494.03C443.44,-483.65 416.55,-469.61 394.6,-458.15"/>
<polygon fill="black" stroke="black" points="396.01,-454.94 385.53,-453.42 392.77,-461.15 396.01,-454.94"/>
</g>
<!-- DOR Érofa&#45;&gt;dictgen -->
<g id="edge7" class="edge">
<title>DOR Érofa&#45;&gt;dictgen</title>
<path fill="none" stroke="black" d="M144.5,-492.39C167.45,-467.37 211.48,-419.36 238.79,-389.59"/>
<polygon fill="black" stroke="black" points="241.5,-391.81 245.68,-382.08 236.34,-387.08 241.5,-391.81"/>
</g>
<!-- h aspirés&#45;&gt;dictgen -->
<g id="edge8" class="edge">
<title>h aspirés&#45;&gt;dictgen</title>
<path fill="none" stroke="black" d="M457.71,-425.19C451.03,-423.05 444.04,-420.82 437.5,-418.74 402.15,-407.52 362.75,-395.12 330.3,-384.95"/>
<polygon fill="black" stroke="black" points="331.05,-381.51 320.46,-381.86 328.96,-388.19 331.05,-381.51"/>
</g>
<!-- dictionnaire 1990&#45;&gt;dictgen -->
<g id="edge9" class="edge">
<title>dictionnaire 1990&#45;&gt;dictgen</title>
<path fill="none" stroke="black" d="M334.4,-419.4C322.41,-410.13 307.19,-398.34 293.83,-388"/>
<polygon fill="black" stroke="black" points="295.85,-385.14 285.8,-381.78 291.57,-390.67 295.85,-385.14"/>
</g>
<!-- dicterofa -->
<g id="node10" class="node">
<title>dicterofa</title>
<ellipse fill="lightyellow" stroke="black" cx="329.5" cy="-279.87" rx="106.13" ry="26.74"/>
<text text-anchor="middle" x="329.5" y="-283.67" font-family="Times,serif" font-size="14.00">dictionnaire 1990+Érofa</text>
<text text-anchor="middle" x="329.5" y="-268.67" font-family="Times,serif" font-size="14.00">avec mots dérivés</text>
</g>
<!-- cli -->
<g id="node13" class="node">
<title>cli</title>
<polygon fill="lightblue" stroke="black" points="260,-216 135,-216 135,-178 260,-178 260,-216"/>
<text text-anchor="middle" x="197.5" y="-200.8" font-family="Times,serif" font-size="14.00">CLI</text>
<text text-anchor="middle" x="197.5" y="-185.8" font-family="Times,serif" font-size="14.00">doc&#45;conversion/bin/</text>
</g>
<!-- dicterofa&#45;&gt;cli -->
<g id="edge12" class="edge">
<title>dicterofa&#45;&gt;cli</title>
<path fill="none" stroke="black" d="M290.25,-254.83C273.04,-244.28 252.9,-231.94 235.8,-221.46"/>
<polygon fill="black" stroke="black" points="237.52,-218.41 227.16,-216.17 233.86,-224.38 237.52,-218.41"/>
</g>
<!-- serveur -->
<g id="node14" class="node">
<title>serveur</title>
<polygon fill="lightblue" stroke="black" points="172.5,-127 96.5,-127 96.5,-89 172.5,-89 172.5,-127"/>
<text text-anchor="middle" x="134.5" y="-111.8" font-family="Times,serif" font-size="14.00">serveur</text>
<text text-anchor="middle" x="134.5" y="-96.8" font-family="Times,serif" font-size="14.00">site/server/</text>
</g>
<!-- dicterofa&#45;&gt;serveur -->
<g id="edge13" class="edge">
<title>dicterofa&#45;&gt;serveur</title>
<path fill="none" stroke="black" d="M318.63,-253.08C308.3,-231 291.02,-199.46 268.5,-178 243.93,-154.58 209.86,-137.18 182.22,-125.71"/>
<polygon fill="black" stroke="black" points="183.32,-122.38 172.74,-121.9 180.71,-128.88 183.32,-122.38"/>
</g>
<!-- webextension -->
<g id="node15" class="node">
<title>webextension</title>
<g id="a_node15"><a xlink:href="https://addons.mozilla.org/fr/firefox/addon/orthographe-rationnelle/" xlink:title="extension web\nextension/">
<polygon fill="lightgreen" stroke="black" points="478,-38 383,-38 383,0 478,0 478,-38"/>
<text text-anchor="middle" x="430.5" y="-22.8" font-family="Times,serif" font-size="14.00">extension web</text>
<text text-anchor="middle" x="430.5" y="-7.8" font-family="Times,serif" font-size="14.00">extension/</text>
</a>
</g>
</g>
<!-- dicterofa&#45;&gt;webextension -->
<g id="edge14" class="edge">
<title>dicterofa&#45;&gt;webextension</title>
<path fill="none" stroke="black" d="M339.55,-253.1C358.65,-204.17 400,-98.18 419.67,-47.75"/>
<polygon fill="black" stroke="black" points="423.04,-48.74 423.42,-38.15 416.52,-46.2 423.04,-48.74"/>
</g>
<!-- conv -->
<g id="node11" class="node">
<title>conv</title>
<defs>
<linearGradient id="l_1" gradientUnits="userSpaceOnUse" x1="46" y1="-279.87" x2="167" y2="-279.87" >
<stop offset="0" style="stop-color:lightgreen;stop-opacity:1.;"/>
<stop offset="1" style="stop-color:lightblue;stop-opacity:1.;"/>
</linearGradient>
</defs>
<polygon fill="url(#l_1)" stroke="black" points="167,-298.87 46,-298.87 46,-260.87 167,-260.87 167,-298.87"/>
<text text-anchor="middle" x="106.5" y="-283.67" font-family="Times,serif" font-size="14.00">conversion de docs</text>
<text text-anchor="middle" x="106.5" y="-268.67" font-family="Times,serif" font-size="14.00">doc&#45;conversion/</text>
</g>
<!-- conv&#45;&gt;cli -->
<g id="edge15" class="edge">
<title>conv&#45;&gt;cli</title>
<path fill="none" stroke="black" d="M127.15,-260.52C139.6,-249.46 155.63,-235.21 169.24,-223.11"/>
<polygon fill="black" stroke="black" points="171.78,-225.54 176.93,-216.28 167.13,-220.3 171.78,-225.54"/>
</g>
<!-- conv&#45;&gt;serveur -->
<g id="edge16" class="edge">
<title>conv&#45;&gt;serveur</title>
<path fill="none" stroke="black" d="M109.5,-260.69C114.38,-231.06 124.09,-172.15 129.87,-137.1"/>
<polygon fill="black" stroke="black" points="133.35,-137.48 131.53,-127.05 126.45,-136.35 133.35,-137.48"/>
</g>
<!-- client -->
<g id="node16" class="node">
<title>client</title>
<g id="a_node16"><a xlink:href="https://orthographe-rationnelle.info" xlink:title="client orthographe&#45;rationnelle.info\nsite/client/">
<polygon fill="lightgreen" stroke="black" points="203,-38 0,-38 0,0 203,0 203,-38"/>
<text text-anchor="middle" x="101.5" y="-22.8" font-family="Times,serif" font-size="14.00">client orthographe&#45;rationnelle.info</text>
<text text-anchor="middle" x="101.5" y="-7.8" font-family="Times,serif" font-size="14.00">site/client/</text>
</a>
</g>
</g>
<!-- conv&#45;&gt;client -->
<g id="edge20" class="edge">
<title>conv&#45;&gt;client</title>
<path fill="none" stroke="black" d="M102.28,-260.81C94.94,-227.05 81.16,-152.12 87.5,-89 88.87,-75.32 91.74,-60.34 94.53,-47.84"/>
<polygon fill="black" stroke="black" points="97.96,-48.54 96.82,-38.01 91.14,-46.96 97.96,-48.54"/>
</g>
<!-- dictgen&#45;&gt;dicterofa -->
<g id="edge10" class="edge">
<title>dictgen&#45;&gt;dicterofa</title>
<path fill="none" stroke="black" d="M277.7,-343.39C284.83,-334.78 293.56,-324.26 301.8,-314.31"/>
<polygon fill="black" stroke="black" points="304.58,-316.44 308.26,-306.5 299.19,-311.97 304.58,-316.44"/>
</g>
<!-- dictgen&#45;&gt;cli -->
<g id="edge17" class="edge">
<title>dictgen&#45;&gt;cli</title>
<path fill="none" stroke="black" d="M241.69,-343.34C231.88,-333.47 220.93,-320.52 214.5,-306.74 202.58,-281.18 198.75,-248.94 197.65,-226.22"/>
<polygon fill="black" stroke="black" points="201.15,-226.08 197.31,-216.21 194.15,-226.32 201.15,-226.08"/>
</g>
<!-- dictgen&#45;&gt;serveur -->
<g id="edge18" class="edge">
<title>dictgen&#45;&gt;serveur</title>
<path fill="none" stroke="black" d="M180.3,-352.41C123.25,-344.04 54.4,-329.52 36.5,-306.74 -7.07,-251.29 62.66,-173.37 105.3,-133.94"/>
<polygon fill="black" stroke="black" points="107.85,-136.35 112.91,-127.04 103.15,-131.17 107.85,-136.35"/>
</g>
<!-- dictgen&#45;&gt;webextension -->
<g id="edge11" class="edge">
<title>dictgen&#45;&gt;webextension</title>
<path fill="none" stroke="black" d="M344.54,-359.92C400.12,-353.79 463.5,-334.94 463.5,-280.87 463.5,-280.87 463.5,-280.87 463.5,-107 463.5,-86.07 455.05,-64.04 446.7,-47.38"/>
<polygon fill="black" stroke="black" points="449.63,-45.45 441.86,-38.25 443.45,-48.72 449.63,-45.45"/>
</g>
<!-- cli&#45;&gt;serveur -->
<g id="edge19" class="edge">
<title>cli&#45;&gt;serveur</title>
<path fill="none" stroke="black" d="M184.45,-177.97C175.49,-165.61 163.47,-149 153.46,-135.18"/>
<polygon fill="black" stroke="black" points="156.24,-133.05 147.54,-127 150.57,-137.16 156.24,-133.05"/>
<text text-anchor="middle" x="187" y="-148.8" font-family="Times,serif" font-size="14.00">inclus</text>
</g>
<!-- serveur&#45;&gt;client -->
<g id="edge21" class="edge">
<title>serveur&#45;&gt;client</title>
<path fill="none" stroke="black" d="M127.66,-88.97C123.1,-76.96 117.03,-60.94 111.88,-47.36"/>
<polygon fill="black" stroke="black" points="115.15,-46.11 108.33,-38 108.6,-48.59 115.15,-46.11"/>
<text text-anchor="middle" x="129.5" y="-59.8" font-family="Times,serif" font-size="14.00">rpc</text>
</g>
</g>
</svg>
