<?xml version="1.0" encoding="UTF-8" standalone="no"?>
<!DOCTYPE svg PUBLIC "-//W3C//DTD SVG 1.1//EN"
 "http://www.w3.org/Graphics/SVG/1.1/DTD/svg11.dtd">
<!-- Generated by graphviz version 2.43.0 (0)
 -->
<!-- Title: %3 Pages: 1 -->
<svg width="613pt" height="684pt"
 viewBox="0.00 0.00 613.00 683.74" xmlns="http://www.w3.org/2000/svg" xmlns:xlink="http://www.w3.org/1999/xlink">
<g id="graph0" class="graph" transform="scale(1 1) rotate(0) translate(4 679.74)">
<title>%3</title>
<polygon fill="white" stroke="transparent" points="-4,4 -4,-679.74 609,-679.74 609,4 -4,4"/>
<g id="clust1" class="cluster">
<title>cluster_legend</title>
<polygon fill="none" stroke="black" points="51,-592.74 51,-667.74 597,-667.74 597,-592.74 51,-592.74"/>
<text text-anchor="middle" x="324" y="-652.54" font-family="Times,serif" font-size="14.00">Légende</text>
</g>
<g id="clust2" class="cluster">
<title>cluster_inputs</title>
<polygon fill="none" stroke="black" stroke-dasharray="5,2" points="41,-498.74 41,-573.74 525,-573.74 525,-498.74 41,-498.74"/>
<text text-anchor="middle" x="283" y="-558.54" font-family="Times,serif" font-size="14.00">Sources externes de données sur le français</text>
</g>
<!-- zz -->
<g id="node1" class="node">
<title>zz</title>
<ellipse fill="lightyellow" stroke="black" cx="432" cy="-618.74" rx="156.77" ry="18"/>
<text text-anchor="middle" x="432" y="-615.04" font-family="Times,serif" font-size="14.00">jaune=données générées pendant le build</text>
</g>
<!-- zz2 -->
<g id="node2" class="node">
<title>zz2</title>
<polygon fill="lightgreen" stroke="black" points="257,-636.74 159,-636.74 159,-600.74 257,-600.74 257,-636.74"/>
<text text-anchor="middle" x="208" y="-615.04" font-family="Times,serif" font-size="14.00">vert=javascript</text>
</g>
<!-- zz3 -->
<g id="node3" class="node">
<title>zz3</title>
<polygon fill="lightblue" stroke="black" points="141,-636.74 59,-636.74 59,-600.74 141,-600.74 141,-636.74"/>
<text text-anchor="middle" x="100" y="-615.04" font-family="Times,serif" font-size="14.00">bleu=ocaml</text>
</g>
<!-- DOR Érofa -->
<g id="node7" class="node">
<title>DOR Érofa</title>
<g id="a_node7"><a xlink:href="https://gitlab.com/erofa/coorte/-/blob/main/DOR/DOR.csv" xlink:title="DOR Érofa">
<ellipse fill="lightyellow" stroke="black" cx="100" cy="-524.74" rx="51.19" ry="18"/>
<text text-anchor="middle" x="100" y="-521.04" font-family="Times,serif" font-size="14.00">DOR Érofa</text>
</a>
</g>
</g>
<!-- zz3&#45;&gt;DOR Érofa -->
<!-- recto&#45;verso -->
<g id="node4" class="node">
<title>recto&#45;verso</title>
<g id="a_node4"><a xlink:href="https://uclouvain.be/recto-verso/essaie-recto.html" xlink:title="recto&#45;verso">
<ellipse fill="lightyellow" stroke="black" cx="339" cy="-524.74" rx="50.09" ry="18"/>
<text text-anchor="middle" x="339" y="-521.04" font-family="Times,serif" font-size="14.00">recto&#45;verso</text>
</a>
</g>
</g>
<!-- dictionnaire 1990 -->
<g id="node9" class="node">
<title>dictionnaire 1990</title>
<ellipse fill="lightyellow" stroke="black" cx="326" cy="-451.74" rx="72.59" ry="18"/>
<text text-anchor="middle" x="326" y="-448.04" font-family="Times,serif" font-size="14.00">dictionnaire 1990</text>
</g>
<!-- recto&#45;verso&#45;&gt;dictionnaire 1990 -->
<g id="edge3" class="edge">
<title>recto&#45;verso&#45;&gt;dictionnaire 1990</title>
<path fill="none" stroke="black" d="M335.85,-506.55C334.38,-498.53 332.6,-488.79 330.96,-479.81"/>
<polygon fill="black" stroke="black" points="334.36,-478.98 329.12,-469.77 327.48,-480.24 334.36,-478.98"/>
</g>
<!-- lexique -->
<g id="node5" class="node">
<title>lexique</title>
<g id="a_node5"><a xlink:href="http://lexique.org" xlink:title="lexique.org">
<ellipse fill="lightyellow" stroke="black" cx="220" cy="-524.74" rx="50.89" ry="18"/>
<text text-anchor="middle" x="220" y="-521.04" font-family="Times,serif" font-size="14.00">lexique.org</text>
</a>
</g>
</g>
<!-- lexique&#45;&gt;dictionnaire 1990 -->
<g id="edge4" class="edge">
<title>lexique&#45;&gt;dictionnaire 1990</title>
<path fill="none" stroke="black" d="M242.74,-508.51C257.42,-498.68 276.76,-485.72 293.1,-474.78"/>
<polygon fill="black" stroke="black" points="295.46,-477.41 301.82,-468.93 291.57,-471.59 295.46,-477.41"/>
</g>
<!-- dictgen -->
<g id="node12" class="node">
<title>dictgen</title>
<defs>
<linearGradient id="l_0" gradientUnits="userSpaceOnUse" x1="151" y1="-377.74" x2="315" y2="-377.74" >
<stop offset="0" style="stop-color:lightgreen;stop-opacity:1.;"/>
<stop offset="1" style="stop-color:lightblue;stop-opacity:1.;"/>
</linearGradient>
</defs>
<polygon fill="url(#l_0)" stroke="black" points="315,-396.74 151,-396.74 151,-358.74 315,-358.74 315,-396.74"/>
<text text-anchor="middle" x="233" y="-381.54" font-family="Times,serif" font-size="14.00">génération de dictionnaires</text>
<text text-anchor="middle" x="233" y="-366.54" font-family="Times,serif" font-size="14.00">dict&#45;gen/</text>
</g>
<!-- lexique&#45;&gt;dictgen -->
<g id="edge6" class="edge">
<title>lexique&#45;&gt;dictgen</title>
<path fill="none" stroke="black" d="M221.54,-506.54C223.75,-481.95 227.82,-436.47 230.47,-406.93"/>
<polygon fill="black" stroke="black" points="233.97,-407.1 231.38,-396.83 227,-406.48 233.97,-407.1"/>
</g>
<!-- wiktionnaire -->
<g id="node6" class="node">
<title>wiktionnaire</title>
<g id="a_node6"><a xlink:href="https://fr.wiktionary.org/" xlink:title="wiktionnaire">
<ellipse fill="lightyellow" stroke="black" cx="462" cy="-524.74" rx="55.49" ry="18"/>
<text text-anchor="middle" x="462" y="-521.04" font-family="Times,serif" font-size="14.00">wiktionnaire</text>
</a>
</g>
</g>
<!-- h aspirés -->
<g id="node8" class="node">
<title>h aspirés</title>
<ellipse fill="lightyellow" stroke="black" cx="461" cy="-451.74" rx="42.49" ry="18"/>
<text text-anchor="middle" x="461" y="-448.04" font-family="Times,serif" font-size="14.00">h aspirés</text>
</g>
<!-- wiktionnaire&#45;&gt;h aspirés -->
<g id="edge2" class="edge">
<title>wiktionnaire&#45;&gt;h aspirés</title>
<path fill="none" stroke="black" d="M461.76,-506.55C461.64,-498.53 461.51,-488.79 461.38,-479.81"/>
<polygon fill="black" stroke="black" points="464.88,-479.72 461.24,-469.77 457.88,-479.82 464.88,-479.72"/>
</g>
<!-- wiktionnaire&#45;&gt;dictionnaire 1990 -->
<g id="edge5" class="edge">
<title>wiktionnaire&#45;&gt;dictionnaire 1990</title>
<path fill="none" stroke="black" d="M433.82,-509.03C413.94,-498.65 387.05,-484.61 365.1,-473.15"/>
<polygon fill="black" stroke="black" points="366.51,-469.94 356.03,-468.42 363.27,-476.15 366.51,-469.94"/>
</g>
<!-- DOR Érofa&#45;&gt;dictgen -->
<g id="edge7" class="edge">
<title>DOR Érofa&#45;&gt;dictgen</title>
<path fill="none" stroke="black" d="M115,-507.39C137.95,-482.37 181.98,-434.36 209.29,-404.59"/>
<polygon fill="black" stroke="black" points="212,-406.81 216.18,-397.08 206.84,-402.08 212,-406.81"/>
</g>
<!-- h aspirés&#45;&gt;dictgen -->
<g id="edge8" class="edge">
<title>h aspirés&#45;&gt;dictgen</title>
<path fill="none" stroke="black" d="M428.21,-440.19C421.53,-438.05 414.54,-435.82 408,-433.74 372.65,-422.52 333.25,-410.12 300.8,-399.95"/>
<polygon fill="black" stroke="black" points="301.55,-396.51 290.96,-396.86 299.46,-403.19 301.55,-396.51"/>
</g>
<!-- dictionnaire 1990&#45;&gt;dictgen -->
<g id="edge9" class="edge">
<title>dictionnaire 1990&#45;&gt;dictgen</title>
<path fill="none" stroke="black" d="M304.9,-434.4C292.91,-425.13 277.69,-413.34 264.33,-403"/>
<polygon fill="black" stroke="black" points="266.35,-400.14 256.3,-396.78 262.07,-405.67 266.35,-400.14"/>
</g>
<!-- dicterofa -->
<g id="node10" class="node">
<title>dicterofa</title>
<ellipse fill="lightyellow" stroke="black" cx="367" cy="-294.87" rx="106.13" ry="26.74"/>
<text text-anchor="middle" x="367" y="-298.67" font-family="Times,serif" font-size="14.00">dictionnaire 1990+Érofa</text>
<text text-anchor="middle" x="367" y="-283.67" font-family="Times,serif" font-size="14.00">avec mots dérivés</text>
</g>
<!-- cli -->
<g id="node13" class="node">
<title>cli</title>
<polygon fill="lightblue" stroke="black" points="296.5,-231 171.5,-231 171.5,-193 296.5,-193 296.5,-231"/>
<text text-anchor="middle" x="234" y="-215.8" font-family="Times,serif" font-size="14.00">CLI</text>
<text text-anchor="middle" x="234" y="-200.8" font-family="Times,serif" font-size="14.00">doc&#45;conversion/bin/</text>
</g>
<!-- dicterofa&#45;&gt;cli -->
<g id="edge12" class="edge">
<title>dicterofa&#45;&gt;cli</title>
<path fill="none" stroke="black" d="M327.46,-269.83C310.11,-259.28 289.82,-246.94 272.59,-236.46"/>
<polygon fill="black" stroke="black" points="274.25,-233.38 263.89,-231.17 270.61,-239.36 274.25,-233.38"/>
</g>
<!-- serveur -->
<g id="node14" class="node">
<title>serveur</title>
<polygon fill="lightblue" stroke="black" points="189,-142 113,-142 113,-104 189,-104 189,-142"/>
<text text-anchor="middle" x="151" y="-126.8" font-family="Times,serif" font-size="14.00">serveur</text>
<text text-anchor="middle" x="151" y="-111.8" font-family="Times,serif" font-size="14.00">site/server/</text>
</g>
<!-- dicterofa&#45;&gt;serveur -->
<g id="edge13" class="edge">
<title>dicterofa&#45;&gt;serveur</title>
<path fill="none" stroke="black" d="M356.44,-267.74C346.32,-245.43 329.16,-213.77 306,-193 275.39,-165.56 232.09,-147.53 199.03,-136.81"/>
<polygon fill="black" stroke="black" points="199.72,-133.35 189.13,-133.71 197.63,-140.03 199.72,-133.35"/>
</g>
<!-- webextension -->
<g id="node15" class="node">
<title>webextension</title>
<g id="a_node15"><a xlink:href="https://addons.mozilla.org/fr/firefox/addon/orthographe-rationnelle/" xlink:title="extension web\nextension/">
<polygon fill="lightgreen" stroke="black" points="515.5,-45.5 420.5,-45.5 420.5,-7.5 515.5,-7.5 515.5,-45.5"/>
<text text-anchor="middle" x="468" y="-30.3" font-family="Times,serif" font-size="14.00">extension web</text>
<text text-anchor="middle" x="468" y="-15.3" font-family="Times,serif" font-size="14.00">extension/</text>
</a>
</g>
</g>
<!-- dicterofa&#45;&gt;webextension -->
<g id="edge14" class="edge">
<title>dicterofa&#45;&gt;webextension</title>
<path fill="none" stroke="black" d="M376.87,-267.84C395.99,-217.4 437.95,-106.76 457.54,-55.1"/>
<polygon fill="black" stroke="black" points="460.87,-56.18 461.14,-45.59 454.32,-53.7 460.87,-56.18"/>
</g>
<!-- conv -->
<g id="node11" class="node">
<title>conv</title>
<defs>
<linearGradient id="l_1" gradientUnits="userSpaceOnUse" x1="83.5" y1="-294.87" x2="204.5" y2="-294.87" >
<stop offset="0" style="stop-color:lightgreen;stop-opacity:1.;"/>
<stop offset="1" style="stop-color:lightblue;stop-opacity:1.;"/>
</linearGradient>
</defs>
<polygon fill="url(#l_1)" stroke="black" points="204.5,-313.87 83.5,-313.87 83.5,-275.87 204.5,-275.87 204.5,-313.87"/>
<text text-anchor="middle" x="144" y="-298.67" font-family="Times,serif" font-size="14.00">conversion de docs</text>
<text text-anchor="middle" x="144" y="-283.67" font-family="Times,serif" font-size="14.00">doc&#45;conversion/</text>
</g>
<!-- conv&#45;&gt;cli -->
<g id="edge15" class="edge">
<title>conv&#45;&gt;cli</title>
<path fill="none" stroke="black" d="M164.42,-275.52C176.73,-264.46 192.59,-250.21 206.05,-238.11"/>
<polygon fill="black" stroke="black" points="208.56,-240.57 213.66,-231.28 203.88,-235.36 208.56,-240.57"/>
</g>
<!-- conv&#45;&gt;serveur -->
<g id="edge16" class="edge">
<title>conv&#45;&gt;serveur</title>
<path fill="none" stroke="black" d="M144.75,-275.69C145.97,-246.06 148.4,-187.15 149.84,-152.1"/>
<polygon fill="black" stroke="black" points="153.34,-152.18 150.26,-142.05 146.35,-151.9 153.34,-152.18"/>
</g>
<!-- client -->
<g id="node16" class="node">
<title>client</title>
<g id="a_node16"><a xlink:href="https://orthographe-rationnelle.info" xlink:title="client\northographe&#45;rationnelle.info\nsite/client/">
<polygon fill="lightgreen" stroke="black" points="170,-53 0,-53 0,0 170,0 170,-53"/>
<text text-anchor="middle" x="85" y="-37.8" font-family="Times,serif" font-size="14.00">client</text>
<text text-anchor="middle" x="85" y="-22.8" font-family="Times,serif" font-size="14.00">orthographe&#45;rationnelle.info</text>
<text text-anchor="middle" x="85" y="-7.8" font-family="Times,serif" font-size="14.00">site/client/</text>
</a>
</g>
</g>
<!-- conv&#45;&gt;client -->
<g id="edge17" class="edge">
<title>conv&#45;&gt;client</title>
<path fill="none" stroke="black" d="M138.65,-275.77C130.4,-247.43 114.45,-190.79 104,-142 98.39,-115.81 93.48,-85.94 90.06,-63.28"/>
<polygon fill="black" stroke="black" points="93.48,-62.47 88.55,-53.1 86.56,-63.5 93.48,-62.47"/>
</g>
<!-- dictgen&#45;&gt;dicterofa -->
<g id="edge10" class="edge">
<title>dictgen&#45;&gt;dicterofa</title>
<path fill="none" stroke="black" d="M263.07,-358.59C279.39,-348.74 299.96,-336.33 318.49,-325.15"/>
<polygon fill="black" stroke="black" points="320.36,-328.11 327.11,-319.94 316.74,-322.11 320.36,-328.11"/>
</g>
<!-- dictgen&#45;&gt;cli -->
<g id="edge18" class="edge">
<title>dictgen&#45;&gt;cli</title>
<path fill="none" stroke="black" d="M233.11,-358.59C233.28,-330.19 233.62,-275.02 233.83,-241.35"/>
<polygon fill="black" stroke="black" points="237.33,-241.25 233.89,-231.23 230.33,-241.21 237.33,-241.25"/>
</g>
<!-- dictgen&#45;&gt;serveur -->
<g id="edge19" class="edge">
<title>dictgen&#45;&gt;serveur</title>
<path fill="none" stroke="black" d="M150.87,-367.98C121.74,-360.46 91.79,-346.72 74,-321.74 34.83,-266.74 91.21,-189.14 126.41,-149.49"/>
<polygon fill="black" stroke="black" points="129,-151.84 133.13,-142.08 123.82,-147.14 129,-151.84"/>
</g>
<!-- dictgen&#45;&gt;webextension -->
<g id="edge11" class="edge">
<title>dictgen&#45;&gt;webextension</title>
<path fill="none" stroke="black" d="M315.23,-367.91C394.01,-357.1 501,-335.18 501,-295.87 501,-295.87 501,-295.87 501,-122 501,-98.32 491.65,-73.08 482.91,-54.65"/>
<polygon fill="black" stroke="black" points="486.03,-53.06 478.44,-45.67 479.76,-56.18 486.03,-53.06"/>
</g>
<!-- dictgen&#45;&gt;client -->
<g id="edge20" class="edge">
<title>dictgen&#45;&gt;client</title>
<path fill="none" stroke="black" d="M150.72,-361.66C89.68,-348.05 17,-325.6 17,-295.87 17,-295.87 17,-295.87 17,-122 17,-98.69 30.8,-77.2 45.97,-60.62"/>
<polygon fill="black" stroke="black" points="48.56,-62.99 52.99,-53.37 43.52,-58.12 48.56,-62.99"/>
</g>
<!-- cli&#45;&gt;serveur -->
<g id="edge21" class="edge">
<title>cli&#45;&gt;serveur</title>
<path fill="none" stroke="black" d="M216.8,-192.97C204.78,-180.38 188.57,-163.38 175.24,-149.41"/>
<polygon fill="black" stroke="black" points="177.61,-146.82 168.18,-142 172.55,-151.65 177.61,-146.82"/>
<text text-anchor="middle" x="214.5" y="-163.8" font-family="Times,serif" font-size="14.00">inclus</text>
</g>
<!-- serveur&#45;&gt;client -->
<g id="edge22" class="edge">
<title>serveur&#45;&gt;client</title>
<path fill="none" stroke="black" d="M138.27,-103.78C129.96,-91.88 118.84,-75.96 108.92,-61.75"/>
<polygon fill="black" stroke="black" points="111.52,-59.36 102.93,-53.17 105.78,-63.37 111.52,-59.36"/>
<text text-anchor="middle" x="135" y="-74.8" font-family="Times,serif" font-size="14.00">rpc</text>
</g>
</g>
</svg>
